<svg xmlns="http://www.w3.org/2000/svg" viewBox="0 0 24 24" role="img" aria-label="GPT">
  <!-- Vaultify v0.3.0 -->
  <defs>
    <linearGradient id="gptBg" x1="3" y1="3" x2="21" y2="21" gradientUnits="userSpaceOnUse">
      <stop stop-color="#10A37F"/>
      <stop offset="1" stop-color="#0D8A6A"/>
    </linearGradient>
  </defs>
  <circle cx="12" cy="12" r="11" fill="url(#gptBg)"/>
  <!-- Original mark: interwoven arcs suggesting ChatGPT-style knot (not an official logo copy) -->
  <path fill="none" stroke="#fff" stroke-width="1.35" stroke-linecap="round" stroke-linejoin="round"
    d="M8.2 9.4c.8-2.2 3.6-3 5.6-1.6 1.4 1 1.7 2.8.8 4.2M15.8 14.6c-.8 2.2-3.6 3-5.6 1.6-1.4-1-1.7-2.8-.8-4.2"/>
  <path fill="none" stroke="#fff" stroke-width="1.35" stroke-linecap="round" stroke-linejoin="round"
    d="M9.4 8.2c2.2.8 3 3.6 1.6 5.6-1 1.4-2.8 1.7-4.2.8M14.6 15.8c-2.2-.8-3-3.6-1.6-5.6 1-1.4 2.8-1.7 4.2-.8"/>
</svg>
